<?xml version="1.0" standalone="no"?>
<!DOCTYPE svg PUBLIC "-//W3C//DTD SVG 20010904//EN"
 "http://www.w3.org/TR/2001/REC-SVG-20010904/DTD/svg10.dtd">
<svg version="1.0" xmlns="http://www.w3.org/2000/svg"
 width="400.000000pt" height="400.000000pt" viewBox="0 0 400.000000 400.000000"
 preserveAspectRatio="xMidYMid meet">
<metadata>
Created by potrace 1.11, written by Peter Selinger 2001-2013
</metadata>
<g transform="translate(0.000000,400.000000) scale(0.100000,-0.100000)"
fill="#000000" stroke="none">
<path d="M1976 3283 c-3 -7 -12 -13 -21 -13 -8 0 -15 -4 -15 -8 0 -4 -16 -8
-35 -8 -22 0 -43 -8 -58 -22 -13 -12 -29 -22 -35 -22 -7 0 -23 -7 -36 -16 -14
-8 -50 -17 -81 -19 -31 -2 -74 -12 -95 -23 -37 -18 -39 -18 -29 -1 5 10 17 23
27 28 32 19 -8 11 -45 -9 -47 -25 -56 -17 -18 15 l30 24 -35 -12 c-19 -7 -49
-20 -66 -29 -44 -24 -126 -108 -120 -123 3 -8 -6 -21 -20 -30 -56 -37 -114
-168 -106 -240 1 -10 -2 -32 -7 -47 -6 -15 -7 -28 -2 -28 4 0 5 -38 3 -85 -3
-50 0 -90 6 -97 5 -7 13 -47 17 -88 9 -87 23 -136 24 -81 1 44 9 36 21 -20 7
-32 8 -14 3 66 -3 61 -6 122 -6 137 0 15 -4 25 -8 22 -5 -3 -4 7 1 21 13 34
13 88 0 101 -7 7 -3 23 10 49 11 21 18 41 15 43 -2 3 3 17 13 31 9 14 26 44
37 65 11 22 42 63 68 92 47 52 176 154 193 154 5 0 21 8 34 18 41 28 84 40
103 28 12 -7 20 -8 25 -1 22 30 89 38 78 9 -7 -17 10 -19 17 -1 4 9 8 9 15 -2
7 -10 34 -15 80 -17 39 -1 83 -9 101 -18 36 -19 42 -20 39 -4 -2 7 8 14 22 15
22 2 23 2 5 -7 -15 -7 -10 -9 25 -8 25 1 56 -3 70 -7 39 -12 170 -113 179
-138 5 -12 18 -30 29 -41 12 -10 24 -32 27 -50 4 -17 16 -56 26 -87 10 -32 21
-83 23 -115 2 -33 23 -137 46 -232 22 -95 40 -181 39 -190 -1 -9 3 -35 9 -57
17 -56 15 -68 -7 -62 -25 6 -51 -10 -51 -33 0 -11 -4 -20 -10 -20 -5 0 -10 -5
-10 -10 0 -6 -9 -21 -21 -33 -33 -35 -48 -71 -47 -115 0 -30 5 -42 15 -42 8 0
12 -4 8 -9 -3 -5 1 -16 8 -23 19 -19 9 -98 -13 -98 -4 0 -11 -18 -15 -39 -4
-22 -13 -45 -20 -51 -8 -6 -11 -18 -8 -26 3 -8 -1 -14 -10 -14 -8 0 -20 -7
-28 -16 -10 -13 -10 -17 2 -24 11 -7 9 -9 -6 -9 -11 1 -30 -2 -42 -6 -16 -5
-25 -3 -29 9 -5 13 -8 13 -20 1 -8 -7 -14 -18 -14 -23 0 -6 -20 -8 -45 -6 -35
4 -45 1 -45 -11 0 -20 -10 -19 -26 3 -13 16 -13 16 -14 -1 0 -27 -36 -60 -59
-54 -14 3 -18 1 -14 -9 3 -9 -1 -14 -12 -14 -11 0 -15 -5 -11 -15 8 -21 -7
-19 -34 5 -29 25 -32 25 -24 -4 4 -18 1 -25 -15 -29 -13 -3 -24 1 -30 10 -7
13 -12 13 -27 4 -16 -11 -16 -12 -1 -7 9 3 17 1 17 -4 0 -6 -7 -10 -15 -10 -8
0 -23 -10 -35 -22 -11 -12 -20 -18 -20 -13 0 4 -10 0 -22 -11 -12 -10 -18 -13
-14 -6 9 15 -10 16 -20 1 -5 -8 -9 -8 -14 1 -5 9 -9 9 -14 1 -4 -6 -2 -11 3
-11 6 0 11 -9 11 -20 0 -11 7 -20 15 -20 19 0 20 -26 1 -33 -19 -8 -9 -47 12
-47 8 0 23 -6 31 -13 9 -7 36 -19 61 -26 59 -17 76 -26 72 -42 -3 -10 0 -10
12 0 18 15 36 7 36 -16 0 -10 5 -13 18 -8 30 13 45 10 47 -7 2 -10 -1 -20 -6
-24 -17 -10 -9 -26 11 -21 13 3 20 0 20 -9 0 -17 22 -18 38 -2 10 10 15 10 21
-1 7 -10 20 -12 49 -7 28 4 42 2 46 -7 5 -9 7 -9 12 1 8 16 34 15 34 -2 0 -8
11 -17 25 -20 27 -7 28 -11 30 -106 0 -30 5 -56 10 -56 6 -1 35 16 66 38 49
34 61 50 94 120 34 72 38 90 39 163 1 71 -3 90 -28 143 -16 34 -33 62 -37 62
-9 0 -19 -53 -20 -114 -1 -40 -3 -46 -9 -26 -4 14 -8 19 -9 11 -1 -8 -4 -11
-7 -8 -4 4 -1 13 5 21 8 9 10 27 6 46 -4 20 -3 30 5 30 6 0 9 3 7 8 -2 4 1 45
8 92 7 47 13 75 14 63 1 -28 15 -29 65 -2 21 11 60 23 87 26 39 5 55 12 75 36
33 40 64 55 125 63 44 6 52 11 63 38 l13 31 -71 6 c-39 4 -122 10 -184 14
l-114 8 7 56 c12 107 16 121 36 121 10 0 21 5 25 12 11 18 7 102 -5 106 -6 2
-11 18 -11 35 1 29 2 30 14 15 15 -20 26 -14 26 16 0 12 14 69 32 129 30 99
34 107 58 107 46 0 49 8 48 134 0 101 -3 119 -17 123 -18 4 -51 56 -51 78 0 8
9 19 20 25 11 6 20 17 20 25 0 8 6 15 14 15 8 0 16 5 18 11 4 11 31 16 313 55
105 14 194 30 198 34 12 11 -121 40 -184 40 -29 0 -79 5 -112 12 -53 11 -71
10 -195 -15 -75 -16 -155 -37 -176 -47 -22 -11 -40 -18 -41 -17 -1 1 -23 52
-51 112 -41 93 -59 121 -116 178 -69 69 -168 127 -219 127 -14 0 -34 9 -44 20
-10 11 -28 20 -41 20 -28 0 -55 10 -50 19 2 3 -25 6 -60 7 -44 1 -65 -3 -68
-13z m85 -41 c-9 -3 -9 -8 1 -20 11 -14 10 -15 -7 -7 -35 15 -152 9 -180 -9
-26 -17 -26 -17 -13 6 7 13 14 24 15 26 0 2 30 5 65 8 35 2 77 8 93 13 29 7
53 -8 26 -17z m642 -511 c7 -14 17 -32 24 -39 9 -9 11 -26 6 -55 -5 -23 -7
-78 -6 -122 l1 -80 -47 3 -48 4 -7 129 c-4 71 -4 151 0 179 l7 50 29 -21 c16
-12 35 -33 41 -48z m-42 -594 c-10 -9 -11 -8 -5 6 3 10 9 15 12 12 3 -3 0 -11
-7 -18z m-407 -603 c3 -8 2 -12 -4 -9 -6 3 -10 10 -10 16 0 14 7 11 14 -7z"/>
<path d="M1823 3280 c-13 -5 -23 -12 -23 -16 0 -3 6 -4 14 -1 8 3 17 1 20 -6
3 -9 5 -9 5 1 1 6 12 12 25 12 14 0 28 5 31 10 8 12 -41 12 -72 0z"/>
<path d="M1798 3243 c7 -3 16 -2 19 1 4 3 -2 6 -13 5 -11 0 -14 -3 -6 -6z"/>
<path d="M3948 2925 c-24 -31 -23 -44 7 -103 14 -28 25 -62 25 -76 0 -14 5
-26 10 -26 6 0 10 45 10 115 0 103 -2 115 -17 115 -10 0 -26 -11 -35 -25z"/>
<path d="M3965 2529 c-24 -5 -27 -7 -12 -13 33 -15 18 -29 -24 -22 -29 5 -44
2 -55 -9 -17 -17 -34 -12 -34 10 0 19 -34 37 -54 29 -9 -3 -14 -9 -11 -13 9
-15 -27 -126 -45 -142 -25 -21 -16 -29 34 -29 23 0 58 -5 80 -11 21 -6 54 -8
72 -4 32 6 34 8 34 50 0 35 5 47 26 62 21 16 25 25 22 59 -3 38 -4 39 -33 33z"/>
<path d="M2227 2503 c-9 -3 -15 -8 -13 -11 2 -4 -19 -8 -46 -10 -54 -3 -74
-11 -125 -50 -29 -21 -33 -30 -33 -72 0 -65 18 -114 36 -99 7 6 21 8 31 5 20
-6 137 27 127 36 -9 10 28 26 58 26 18 0 25 -5 21 -14 -8 -22 57 -17 132 10
37 13 69 27 73 31 8 7 10 85 2 85 -3 0 -10 10 -15 22 -8 18 -22 25 -60 30 -27
4 -54 3 -59 -2 -5 -5 -17 -5 -29 1 -10 6 -27 9 -37 6 -9 -2 -23 -1 -31 3 -8 3
-22 5 -32 3z"/>
<path d="M2486 2502 c-3 -6 -1 -14 5 -17 15 -10 25 3 12 16 -7 7 -13 7 -17 1z"/>
<path d="M900 2485 c-21 -25 1 -41 37 -27 15 6 52 14 82 18 69 8 49 20 -38 23
-52 1 -71 -2 -81 -14z"/>
<path d="M1690 2440 c-60 -7 -136 -40 -92 -40 13 0 20 -4 17 -10 -4 -6 9 -10
32 -11 l38 0 -70 -35 c-69 -34 -124 -78 -113 -89 3 -3 27 3 54 13 56 22 150
37 210 33 33 -2 43 2 59 23 10 13 23 22 28 19 5 -3 8 0 5 8 -2 8 -23 23 -45
34 -22 11 -38 25 -36 32 7 20 -29 29 -87 23z"/>
<path d="M305 2376 c-27 -7 -63 -19 -80 -25 -29 -12 -29 -13 -11 -27 26 -18
33 -18 70 5 17 11 52 25 79 31 26 7 47 16 47 21 0 12 -45 10 -105 -5z"/>
<path d="M1177 2253 c-4 -3 -7 -11 -7 -17 0 -6 5 -5 12 2 6 6 9 14 7 17 -3 3
-9 2 -12 -2z"/>
<path d="M1032 2201 c-8 -4 -12 -19 -10 -32 2 -20 8 -24 33 -22 55 4 60 6 61
35 1 26 -2 28 -35 28 -20 0 -42 -4 -49 -9z"/>
<path d="M3980 2190 c-20 -13 -19 -198 2 -211 10 -7 14 4 16 52 2 33 2 84 0
114 -3 45 -5 53 -18 45z"/>
<path d="M910 2175 c0 -8 4 -15 10 -15 5 0 7 7 4 15 -4 8 -8 15 -10 15 -2 0
-4 -7 -4 -15z"/>
<path d="M3573 2169 l-52 -21 34 -52 c19 -28 53 -70 75 -94 22 -24 40 -47 40
-52 0 -6 13 -10 29 -10 33 0 81 34 81 57 0 9 8 25 17 35 14 16 15 25 6 61 -7
25 -8 48 -2 58 10 19 -10 25 -113 34 -50 4 -74 0 -115 -16z"/>
<path d="M613 2142 c-8 -5 -9 -13 -3 -22 7 -11 14 -12 27 -4 9 6 19 16 21 22
4 13 -26 16 -45 4z"/>
<path d="M3393 2133 c-13 -3 -23 -12 -23 -21 0 -10 -9 -23 -20 -30 -25 -15
-16 -38 21 -51 40 -14 56 -6 61 31 5 34 -1 79 -11 77 -3 -1 -16 -4 -28 -6z"/>
<path d="M365 2125 c-5 -2 -22 -6 -37 -9 -35 -8 -35 -16 -1 -56 24 -29 30 -32
69 -26 23 3 53 10 67 17 25 11 43 51 32 69 -6 9 -107 13 -130 5z"/>
<path d="M2070 2116 c0 -9 7 -16 16 -16 17 0 14 22 -4 28 -7 2 -12 -3 -12 -12z"/>
<path d="M2015 2059 c-24 -13 -85 -80 -85 -93 0 -5 -10 0 -23 12 -25 24 -71
29 -83 10 -4 -6 -2 -14 4 -16 7 -2 10 -8 6 -13 -7 -11 3 -11 42 0 26 7 33 5
44 -13 8 -11 13 -30 11 -40 -2 -15 2 -18 18 -13 22 5 111 -37 111 -53 0 -8
-53 -25 -56 -18 -1 2 -10 -5 -21 -14 -16 -15 -28 -16 -73 -9 -39 6 -62 5 -86
-5 -19 -8 -65 -14 -103 -14 -38 0 -73 -4 -76 -10 -8 -13 95 -13 150 -1 72 17
324 24 341 10 22 -18 149 -6 175 17 27 24 20 46 -15 51 -16 2 -38 9 -48 14
-12 7 -18 6 -18 -1 0 -6 -4 -9 -9 -6 -4 3 -6 16 -4 29 3 14 -2 29 -11 36 -9 8
-16 17 -16 22 0 19 -42 119 -50 119 -5 0 -7 -7 -4 -15 10 -24 -43 -19 -56 5
-12 22 -34 25 -65 9z"/>
<path d="M66 1874 c-3 -26 -6 -61 -6 -78 0 -36 -15 -56 -42 -56 -14 0 -18 -8
-18 -35 0 -31 3 -35 26 -35 16 0 24 -5 21 -12 -2 -7 -14 -12 -25 -10 -20 3
-22 -1 -22 -42 0 -50 6 -54 52 -30 25 13 32 13 39 3 17 -28 45 40 47 117 3 62
9 84 34 111 l20 22 -23 20 c-13 12 -37 32 -52 46 -15 14 -32 25 -36 25 -5 0
-11 -21 -15 -46z"/>
<path d="M507 1894 c-12 -12 64 -54 98 -54 34 0 45 12 37 43 -4 14 -16 17 -66
17 -35 0 -65 -3 -69 -6z"/>
<path d="M3597 1814 c-3 -3 -66 -9 -140 -13 -126 -6 -136 -8 -166 -34 -20 -17
-44 -27 -64 -27 -18 0 -49 -3 -70 -7 -35 -5 -38 -8 -32 -32 11 -45 56 -131 68
-131 7 0 25 -7 40 -15 32 -17 62 -5 71 28 5 19 33 19 29 0 -1 -6 9 -21 23 -34
21 -20 28 -21 45 -11 16 10 22 10 34 -2 8 -8 15 -19 15 -25 0 -6 8 -11 18 -11
17 0 18 8 14 86 -4 82 -3 87 23 114 30 32 32 32 99 2 27 -12 67 -22 90 -22 53
0 75 -16 85 -62 7 -28 5 -43 -9 -66 -27 -44 -68 -72 -106 -72 -19 0 -34 -4
-34 -10 0 -5 4 -10 8 -10 19 0 41 -58 35 -93 -5 -31 -2 -37 24 -50 58 -31 136
13 121 68 -10 41 19 67 69 63 34 -3 38 -7 54 -52 22 -59 25 -62 44 -46 13 10
15 46 15 217 l0 205 -77 -7 c-109 -9 -118 -11 -133 -40 -14 -27 -33 -35 -24
-10 4 10 0 15 -11 15 -9 0 -13 5 -10 10 3 6 1 10 -4 10 -6 0 -28 16 -50 35
-35 32 -78 45 -94 29z"/>
<path d="M1601 1796 c-8 -9 -11 -19 -7 -23 9 -9 29 13 24 27 -2 8 -8 7 -17 -4z"/>
<path d="M1136 1709 c-22 -5 -46 -14 -53 -21 -7 -6 -56 -13 -108 -16 -88 -4
-125 -16 -72 -24 14 -2 23 -11 25 -25 2 -13 8 -23 13 -23 5 0 9 -5 9 -11 0
-18 57 -69 77 -69 9 0 28 14 42 31 33 39 132 63 190 45 31 -9 36 -15 33 -37
-4 -32 15 -39 101 -39 68 0 69 3 27 93 -30 62 -32 65 -74 71 -24 4 -52 13 -62
21 -21 16 -89 18 -148 4z"/>
<path d="M476 1664 c-5 -13 -2 -15 16 -10 13 3 31 6 41 6 9 0 17 5 17 10 0 17
-67 12 -74 -6z"/>
<path d="M628 1653 c12 -2 30 -2 40 0 9 3 -1 5 -23 4 -22 0 -30 -2 -17 -4z"/>
<path d="M713 1653 c9 -2 23 -2 30 0 6 3 -1 5 -18 5 -16 0 -22 -2 -12 -5z"/>
<path d="M838 1653 c7 -3 16 -2 19 1 4 3 -2 6 -13 5 -11 0 -14 -3 -6 -6z"/>
<path d="M1970 1640 c-8 -5 -11 -12 -7 -16 4 -4 13 -2 19 4 15 15 7 24 -12 12z"/>
<path d="M1 876 c1 -259 5 -460 9 -446 4 14 8 37 9 53 1 15 6 27 12 27 6 0 8
7 5 16 -3 8 2 32 11 52 9 20 16 40 15 43 0 3 5 23 13 45 9 26 19 38 29 36 10
-2 14 2 10 11 -3 9 4 17 19 21 14 3 27 13 31 21 3 9 2 13 -4 10 -5 -3 -7 1 -4
9 3 8 12 12 19 10 15 -6 49 10 78 37 20 18 86 36 164 43 23 2 46 7 52 11 6 3
11 2 11 -3 0 -6 23 -2 50 9 28 10 64 19 81 19 16 0 28 3 26 8 -3 4 5 8 16 8
68 5 153 26 215 53 39 17 75 31 81 31 5 0 13 4 16 10 4 7 -3 7 -20 0 -33 -13
-48 -13 -40 0 3 6 -1 7 -9 4 -9 -3 -16 -11 -16 -17 0 -6 -13 7 -30 29 -36 47
-41 109 -11 145 14 18 16 28 9 45 -17 37 -126 47 -166 16 l-24 -18 31 -33 c61
-66 25 -119 -71 -106 -29 4 -59 12 -65 17 -15 12 -17 62 -3 88 22 41 -25 100
-79 100 -10 0 -24 7 -31 15 -13 16 -76 12 -113 -7 -13 -7 -23 -2 -42 18 -21
22 -33 27 -72 26 -38 0 -52 -5 -70 -26 -31 -36 -68 -35 -81 3 -7 19 -19 30
-36 33 l-26 5 1 -471z m112 320 c7 -17 -1 -26 -24 -26 -20 0 -33 27 -16 34 22
9 35 6 40 -8z m245 -12 c12 7 37 -22 28 -31 -13 -14 -78 -10 -83 4 -8 21 17
46 33 32 7 -6 17 -8 22 -5z"/>
<path d="M3910 1310 c-30 -4 -53 -8 -50 -10 11 -7 140 -6 140 0 0 7 -29 23
-33 18 -1 -1 -27 -4 -57 -8z"/>
<path d="M3260 1290 c-7 -12 -8 -39 -5 -64 10 -63 -14 -110 -64 -125 -52 -15
-86 -14 -101 4 -7 8 -24 15 -39 14 -37 0 -97 -22 -93 -34 2 -5 -7 -12 -19 -15
-19 -5 -11 -11 42 -34 56 -26 74 -29 147 -27 l83 2 42 -42 c35 -34 103 -79
120 -79 5 0 20 41 19 51 -1 4 14 14 32 24 29 16 41 16 112 6 43 -6 113 -18
154 -27 41 -8 118 -17 170 -20 52 -2 105 -6 118 -9 21 -5 22 -3 22 70 l0 75
-50 0 c-28 0 -67 7 -87 15 -42 18 -101 19 -154 4 -31 -10 -46 -9 -81 4 -70 26
-112 30 -149 14 -31 -13 -39 -13 -69 2 -41 20 -52 54 -44 135 8 67 1 76 -58
76 -27 0 -40 -5 -48 -20z"/>
<path d="M1139 1236 c-2 -3 -36 -6 -74 -7 -58 -2 -133 -16 -100 -18 6 -1 4 -5
-4 -10 -11 -7 -7 -13 17 -25 17 -9 41 -16 54 -16 13 0 38 -9 55 -20 40 -24 85
-29 107 -11 22 18 20 74 -2 94 -18 16 -44 22 -53 13z"/>
<path d="M1491 1154 c-1 -21 19 -88 24 -82 2 2 -3 26 -10 53 -8 28 -14 41 -14
29z"/>
<path d="M2709 1008 c-2 -27 -1 -48 2 -48 11 0 17 53 9 74 -6 16 -8 9 -11 -26z"/>
<path d="M2345 783 c-16 -9 -40 -24 -52 -35 -11 -11 -51 -27 -87 -36 l-66 -17
75 -40 c60 -31 75 -44 75 -62 0 -13 4 -23 8 -23 10 0 32 45 32 64 0 8 16 37
35 66 38 56 42 72 23 88 -9 7 -22 6 -43 -5z"/>
<path d="M3676 762 c-5 -8 55 -61 92 -81 12 -7 47 -50 77 -97 49 -75 75 -124
136 -259 l19 -40 0 228 0 227 -22 2 c-13 0 -30 0 -38 0 -98 -11 -265 2 -254
19 3 5 3 9 0 9 -3 0 -7 -3 -10 -8z"/>
<path d="M1635 737 c-4 -16 7 -42 39 -92 25 -38 49 -84 52 -102 6 -31 24 -57
24 -34 0 6 10 11 23 11 12 0 28 9 35 20 11 18 10 20 -12 20 -17 0 -26 7 -30
25 -4 14 -13 25 -22 25 -25 0 -74 55 -68 76 6 23 -11 74 -26 74 -5 0 -12 -10
-15 -23z"/>
<path d="M2541 663 c-53 -72 -60 -102 -10 -43 30 36 74 110 64 110 -3 0 -27
-30 -54 -67z"/>
<path d="M10 379 c0 -5 5 -7 10 -4 6 3 10 8 10 11 0 2 -4 4 -10 4 -5 0 -10 -5
-10 -11z"/>
<path d="M3896 80 c-4 -28 -9 -57 -12 -65 -4 -10 0 -15 14 -15 18 0 19 6 16
61 -2 34 -5 64 -7 66 -3 2 -7 -19 -11 -47z"/>
</g>
</svg>
